# xmcd CD database file
#
# Track frame offsets:
#	182
#	14392
#	35840
#	48575
#	68227
#	94102
#	110492
#	125632
#	154082
#	187997
#	210542
#	219307
#	233555
#	253387
#	275077
#	302147
#	324580
#
# Disc length: 4522 seconds
#
# Revision: 0
# Processed by: cddbd v1.5.2PL0 Copyright (c) Steve Scherf et al.
# Submitted via: CDex 1.51
#
DISCID=fc11a811
DTITLE=LUDOVICO EINAUDI - Salgari
DYEAR=1995
DGENRE=New Age
TTITLE0=Prologo
TTITLE1=Jungla1
TTITLE2=Jungla2
TTITLE3=Realtà1
TTITLE4=Viaggio1
TTITLE5=INTERLUDIO1
TTITLE6=Jungla3
TTITLE7=Viaggio2
TTITLE8=Jungla4
TTITLE9=INTERLUDIO2
TTITLE10=Jungla5
TTITLE11=Jungla6
TTITLE12=Jungla7
TTITLE13=INTERLUDIO3
TTITLE14=Viaggio3
TTITLE15=Jungla8 - Relatà2
TTITLE16=Finale
EXTD=YEAR: 1995
EXTT0=
EXTT1=
EXTT2=
EXTT3=
EXTT4=
EXTT5=
EXTT6=
EXTT7=
EXTT8=
EXTT9=
EXTT10=
EXTT11=
EXTT12=
EXTT13=
EXTT14=
EXTT15=
EXTT16=
PLAYORDER=
